<svg width="680" height="680" viewBox="0 0 680 680" fill="none" xmlns="http://www.w3.org/2000/svg">
<path d="M94.96 25.3314L99.0649 21.3327L101.929 24.2924C98.6032 28.4963 97.8324 30.2557 99.8058 32.2116C101.954 34.4314 103.975 33.4756 106.291 31.302L121.997 16.1198L119.133 13.1601L120.781 11.5799L130.262 21.4628L128.614 23.043L126.022 20.3213L110.959 34.8135C107.498 38.1222 102.821 38.4434 98.2294 33.6693C95.3917 30.8062 94.8463 27.2253 94.96 25.3314Z" fill="black"/>
<path d="M120.274 34.8024C126.735 29.5512 136.208 27.4271 142.401 35.0851C148.891 43.0778 144.952 51.1731 139.398 55.56C132.911 60.7146 123.586 63.0061 117.245 55.1807C110.729 47.0915 114.746 39.2859 120.274 34.8024ZM133.217 52.9715C139.942 47.546 144.244 40.803 140.379 36.0409C136.96 31.7806 131.242 33.6233 126.41 37.61C119.685 43.0354 115.454 49.656 119.344 54.5147C122.641 58.7042 128.262 56.8874 133.217 52.9715Z" fill="black"/>
<path d="M166.746 74.9422L144.501 89.2884L146.496 92.481L144.552 93.7266L137.401 82.4946L139.345 81.2491L141.339 84.4417L152.185 77.3945L145.46 66.9801L134.589 73.9307L136.583 77.1233L134.639 78.3689L127.488 67.1369L129.432 65.8913L131.427 69.084L153.671 54.7377L151.677 51.5451L153.621 50.2995L160.868 61.5056L158.924 62.7512L156.834 59.5844L147.378 65.638L154.103 76.0524L163.558 69.9989L161.564 66.8062L163.508 65.5607L170.658 76.7927L168.837 78.1089L166.746 74.9422Z" fill="black"/>
<path d="M147.2 93.9489L148.93 97.3157L172.55 85.3963L170.819 82.0295L172.912 80.9512L176.728 88.625L163.851 110.503L180.905 101.896L179.2 98.6258L181.293 97.5476L185.883 106.567L183.791 107.645L182.061 104.278L156.349 117.276L154.767 114.076L169.135 90.0384L150.06 99.6012L151.642 102.801L149.55 103.879L145.081 94.9305L147.2 93.9489Z" fill="black"/>
<path d="M177.045 127.673C184.907 124.946 194.261 125.856 197.551 135.43C199.206 140.06 198.489 143.565 198.059 145.44L191.91 147.605L190.559 143.723C195.349 141.507 196.389 138.433 195.323 135.613C193.539 130.501 187.567 130.237 181.611 132.351C172.326 135.564 168.153 141.237 169.859 146.06C170.932 149.292 173.808 151.524 178.599 150.861L179.44 153.224C173.418 154.32 168.88 151.292 167.07 146.083C163.676 136.121 170.22 130.02 177.045 127.673Z" fill="black"/>
<path d="M186.082 154.447C194.248 152.466 203.668 154.393 206.037 164.008C208.51 174.009 201.643 179.679 194.637 181.349C186.568 183.304 177.077 181.499 174.682 171.788C172.158 161.594 179.102 156.214 186.082 154.447ZM190.089 176.356C198.448 174.323 205.265 170.012 203.757 163.998C202.456 158.756 196.548 157.958 190.34 159.518C181.981 161.55 175.261 165.835 176.769 171.85C178.193 177.163 183.978 177.89 190.089 176.356Z" fill="black"/>
<path d="M193.625 186.072C201.901 184.89 211.071 187.816 212.448 197.593C213.929 207.756 206.443 212.661 199.378 213.725C191.198 214.882 181.958 212.078 180.529 202.108C179.119 191.823 186.656 187.111 193.625 186.072ZM195.429 208.261C203.898 207.027 211.141 203.534 210.309 197.338C209.587 191.941 203.743 190.608 197.451 191.466C188.982 192.7 181.862 196.264 182.668 202.363C183.512 207.831 189.259 209.19 195.429 208.261Z" fill="black"/>
<path d="M207.141 241.151C202.026 241.382 198.369 237.393 198.053 231.577L197.777 226.681L185.925 227.269L186.11 231.05L183.759 231.162L183.099 217.88L185.45 217.768L185.634 221.549L212.101 220.255L211.916 216.474L214.268 216.361L214.922 230.783C215.194 236.819 212.229 240.823 207.141 241.151ZM206.843 235.019C210.431 234.886 212.799 232.905 212.635 230.361L212.392 225.975L200.031 226.595L200.275 230.981C200.387 233.332 203.352 235.126 206.843 235.019Z" fill="black"/>
<path d="M192.107 268.887L183.417 268.524L184.431 243.716L186.737 243.823L186.606 247.585L213.089 248.667L213.219 244.905L215.526 245.012L214.602 269.382L205.911 269.018L206.049 265.669L212.61 263.496L212.993 254.491L201.803 254.072L201.597 259.097L205.359 259.228L205.214 262.165L195.384 261.797L195.528 258.86L199.29 258.99L199.497 253.966L186.633 253.479L186.257 262.897L192.56 265.556L192.107 268.887Z" fill="black"/>
<path d="M181.619 300.064L179.357 299.738L180.5 291.253L195.669 284.497L195.987 281.823L184.268 280.201L183.822 283.944L181.56 283.618L183.303 270.418L185.565 270.743L185.118 274.486L211.327 278.024L211.773 274.281L214.034 274.606L212.068 288.903C211.116 295.783 206.816 298.281 202.416 297.701C198.673 297.254 195.887 294.584 195.212 290.52L181.95 296.662L181.619 300.064ZM198.345 282.123L197.739 286.427C197.439 288.785 199.928 291.12 203.381 291.644C206.931 292.143 209.648 290.69 209.992 288.113L210.599 283.809L198.345 282.123Z" fill="black"/>
<path d="M191.556 363.038L192.66 359.429L167.614 342.846L168.532 339.701L191.759 339.068L172.767 326.143L173.781 322.973L203.934 323.072L205.038 319.463L207.184 320.131L203.179 333.006L201.034 332.339L202.137 328.73L180.861 328.53L200.413 341.615L199.541 344.541L175.682 345.136L193.539 356.916L194.643 353.307L196.789 353.974L193.799 363.679L191.556 363.038Z" fill="black"/>
<path d="M177.303 359.299C184.953 362.736 191.165 370.079 187.169 379.121C182.961 388.531 174.111 388.728 167.537 385.831C159.913 382.49 153.604 375.174 157.671 366.009C161.923 356.38 170.852 356.473 177.303 359.299ZM167.085 379.119C174.954 382.601 182.949 383.461 185.474 377.815C187.671 372.878 183.427 368.632 177.659 366.037C169.79 362.555 161.917 361.765 159.392 367.411C157.099 372.374 161.316 376.524 167.085 379.119Z" fill="black"/>
<path d="M139.085 407.534L137.125 406.403L141.342 398.958L157.948 398.339L159.291 396.012L149.029 390.169L147.217 393.45L145.257 392.318L151.781 380.735L153.741 381.866L151.928 385.147L174.876 398.151L176.688 394.87L178.648 396.002L171.558 408.565C168.119 414.663 163.231 415.351 159.337 413.185C156.057 411.372 154.493 407.857 155.397 403.888L140.808 404.691L139.085 407.534ZM161.225 397.047L159.033 400.843C157.831 402.925 159.29 406.054 162.352 407.822C165.414 409.59 168.538 409.27 169.785 406.969L171.977 403.173L161.225 397.047Z" fill="black"/>
<path d="M121.291 432.697L119.376 431.347L124.778 423.688L142.816 424.548L143.645 423.394L133.066 415.98L130.886 419.049L128.971 417.698L136.623 406.848L138.538 408.198L136.358 411.267L157.962 426.598L160.142 423.529L162.057 424.88L154.404 435.73L152.49 434.38L154.67 431.311L145.586 424.841L144.068 426.905L147.988 440.762L150.098 437.816L152.012 439.166L145.852 447.857L143.937 446.506L146.188 443.315L142.475 430.23L123.375 429.654L121.291 432.697Z" fill="black"/>
<path d="M120.732 434.089L125.162 437.871L122.57 440.947C118.057 438.015 115.372 438.424 113.494 440.688C111.545 443.073 111.883 445.881 114.146 447.76C115.649 449.117 117.472 449.353 119.307 448.861L128.696 446.035C131.207 445.362 134.312 445.358 136.968 447.545C140.437 450.446 140.495 455.297 136.571 459.972C133.811 463.196 130.419 464.83 127.874 464.994L123.322 461.141L126.011 458.039C130.601 461.261 133.139 460.684 134.875 458.666C136.754 456.403 136.326 454.033 134.307 452.296C132.953 451.106 131.542 450.863 129.926 451.399L120.151 454.329C116.893 455.306 113.703 454.607 111.318 452.659C107.578 449.52 107.681 444.108 111.939 439.137C115.052 435.3 118.742 434.001 120.732 434.089Z" fill="black"/>
</svg>
