<svg width="684" height="684" viewBox="0 0 684 684" fill="none" xmlns="http://www.w3.org/2000/svg">
<path d="M185.9 79.7001L183.1 74.7001L186.7 72.7001C189.9 77.0001 191.4 78.2001 193.8 76.8001C196.5 75.3001 196.1 73.1001 194.6 70.3001L184 51.2001L180.4 53.2001L179.3 51.2001L191.3 44.6001L192.4 46.6001L189.1 48.4001L199.2 66.7001C201.5 70.9001 200.6 75.5001 194.8 78.7001C191.3 80.7001 187.7 80.3001 185.9 79.7001Z" fill="black"/>
<path d="M201.6 57.7003C198.2 50.1003 198.6 40.4003 207.6 36.4003C217 32.2003 223.8 38.1003 226.6 44.6003C229.9 52.2003 229.7 61.8003 220.5 65.9003C211 70.1003 204.5 64.2003 201.6 57.7003ZM222.5 49.9003C219 42.0003 213.6 36.1003 208 38.6003C203 40.8003 203.3 46.8003 205.9 52.5003C209.4 60.4003 214.7 66.2003 220.4 63.7003C225.3 61.6003 225 55.7003 222.5 49.9003Z" fill="black"/>
<path d="M252.4 23.2004L260.5 48.4004L264.1 47.3004L264.8 49.5004L252.1 53.5004L251.4 51.3004L255 50.2004L251 37.9004L239.2 41.7004L243.1 54.0004L246.7 52.9004L247.4 55.1004L234.7 59.1004L234 56.9004L237.6 55.8004L229.5 30.6004L225.9 31.7004L225.2 29.5004L237.9 25.4004L238.6 27.6004L235 28.8004L238.4 39.5004L250.2 35.7004L246.8 25.0004L243.2 26.1004L242.5 23.9004L255.2 19.9004L256 22.0004L252.4 23.2004Z" fill="black"/>
<path d="M265.7 47.0004L269.4 46.2004L264 20.3004L260.3 21.1004L259.8 18.8004L268.2 17.1004L286 35.2004L282.1 16.5004L278.5 17.3004L278 15.0004L287.9 12.9004L288.4 15.2004L284.7 16.0004L290.6 44.2004L287.1 44.9004L267.6 24.8004L271.9 45.7004L275.4 45.0004L275.9 47.3004L266.1 49.3004L265.7 47.0004Z" fill="black"/>
<path d="M306 26.9001C305.4 18.6001 308.7 9.80013 318.8 9.10013C323.7 8.70013 326.9 10.3001 328.6 11.2001L329.1 17.7001L325 18.0001C324.1 12.8001 321.4 11.0001 318.4 11.3001C313 11.7001 311.2 17.4001 311.7 23.7001C312.4 33.5001 316.8 39.0001 321.9 38.6001C325.3 38.4001 328.2 36.2001 328.8 31.4001L331.3 31.2001C330.8 37.3001 326.7 40.9001 321.2 41.3001C310.7 42.0001 306.5 34.1001 306 26.9001Z" fill="black"/>
<path d="M334.2 25.1003C334.4 16.7003 338.7 8.1003 348.6 8.3003C358.9 8.5003 362.6 16.6003 362.4 23.8003C362.2 32.1003 358 40.8003 348 40.6003C337.5 40.4003 334.1 32.3003 334.2 25.1003ZM356.4 26.9003C356.6 18.3003 354.2 10.6003 348 10.5003C342.6 10.4003 340.3 15.9003 340.2 22.3003C340 30.9003 342.4 38.5003 348.6 38.6003C354.1 38.6003 356.3 33.2003 356.4 26.9003Z" fill="black"/>
<path d="M366.7 26.0003C367.7 17.7003 372.9 9.60034 382.7 10.8003C392.9 12.0003 395.7 20.5003 394.9 27.6003C393.9 35.8003 388.8 44.0003 378.8 42.8003C368.5 41.5003 365.9 33.0003 366.7 26.0003ZM388.6 30.0003C389.6 21.5003 388.1 13.6003 381.9 12.8003C376.5 12.1003 373.7 17.4003 372.9 23.7003C371.9 32.2003 373.5 40.0003 379.6 40.8003C385.1 41.4003 387.9 36.2003 388.6 30.0003Z" fill="black"/>
<path d="M423.4 27.2004C422.3 32.2004 417.5 34.7004 411.8 33.5004L407 32.5004L404.5 44.1004L408.2 44.9004L407.7 47.2004L394.7 44.4004L395.2 42.1004L398.9 42.9004L404.5 17.0004L400.8 16.2004L401.3 13.9004L415.4 17.0004C421.3 18.3004 424.4 22.2004 423.4 27.2004ZM417.4 25.9004C418.2 22.4004 416.9 19.6004 414.4 19.1004L410.1 18.2004L407.5 30.3004L411.8 31.2004C414.1 31.7004 416.6 29.3004 417.4 25.9004Z" fill="black"/>
<path d="M446.3 48.9001L443.7 57.2001L420 49.8001L420.7 47.6001L424.3 48.7001L432.2 23.4001L428.6 22.3001L429.3 20.1001L452.6 27.3001L450 35.6001L446.8 34.6001L446.4 27.7001L437.8 25.0001L434.5 35.7001L439.3 37.2001L440.4 33.6001L443.2 34.5001L440.3 43.9001L437.5 43.0001L438.6 39.4001L433.8 37.9001L430 50.2001L439 53.0001L443.2 47.6001L446.3 48.9001Z" fill="black"/>
<path d="M473.7 67.1002L472.8 69.2002L464.9 65.9002L462.3 49.5002L459.8 48.5002L455.2 59.4002L458.7 60.8002L457.8 62.9002L445.5 57.8002L446.4 55.7002L449.9 57.1002L460.1 32.7002L456.6 31.3002L457.5 29.2002L470.8 34.8002C477.2 37.5002 478.5 42.3002 476.8 46.4002C475.4 49.9002 472.1 51.9002 468 51.5002L470.5 65.9002L473.7 67.1002ZM460.7 46.3002L464.7 48.0002C466.9 48.9002 469.8 47.1002 471.2 43.9002C472.6 40.6002 471.9 37.6002 469.5 36.6002L465.5 34.9002L460.7 46.3002Z" fill="black"/>
<path d="M537.1 73.8001L533.9 71.8001L511.4 91.7001L508.6 90.0001L514 67.4001L496.6 82.4001L493.8 80.6001L501.7 51.5001L498.5 49.5001L499.7 47.6001L511.1 54.8001L509.9 56.7001L506.7 54.7001L501 75.2001L518.7 59.7001L521.3 61.3001L515.7 84.5001L531.7 70.3001L528.5 68.3001L529.7 66.4001L538.3 71.8001L537.1 73.8001Z" fill="black"/>
<path d="M529.8 86.6004C535.1 80.1004 543.8 76.0004 551.5 82.2004C559.5 88.7004 557.4 97.3004 552.9 102.9C547.7 109.4 539 113.6 531.2 107.3C523 100.7 525.4 92.1004 529.8 86.6004ZM546.3 101.6C551.7 94.9004 554.6 87.4004 549.8 83.5004C545.6 80.1004 540.4 83.1004 536.4 88.0004C531 94.7004 528.2 102.1 533 106C537.2 109.5 542.3 106.5 546.3 101.6Z" fill="black"/>
<path d="M566.5 136L564.9 137.6L558.8 131.6L562.5 115.4L560.6 113.5L552.3 121.9L555 124.5L553.4 126.1L543.9 116.8L545.5 115.2L548.2 117.8L566.7 99.0003L564 96.4003L565.6 94.8003L575.9 104.9C580.9 109.8 580.3 114.7 577.2 117.9C574.6 120.6 570.8 121.2 567.2 119.3L564.2 133.6L566.5 136ZM562.1 111.9L565.2 115C566.9 116.7 570.3 116.1 572.8 113.6C575.3 111.1 575.8 108 573.9 106.2L570.8 103.1L562.1 111.9Z" fill="black"/>
<path d="M586.2 159.7L584.4 161.2L578.4 154L583.9 136.8L583 135.7L573.1 144L575.5 146.9L573.7 148.4L565.2 138.2L567 136.7L569.4 139.6L589.8 122.7L587.4 119.8L589.2 118.3L597.7 128.5L595.9 130L593.5 127.1L584.9 134.2L586.5 136.2L600.9 136L598.6 133.2L600.4 131.7L607.2 139.9L605.4 141.4L602.9 138.4L589.3 138.6L583.8 156.9L586.2 159.7Z" fill="black"/>
<path d="M587.4 160.6L592.2 157.3L594.5 160.6C590.5 164.2 590.2 166.9 591.9 169.3C593.7 171.8 596.5 172.2 598.9 170.5C600.6 169.4 601.3 167.7 601.3 165.8L601 156C601 153.4 601.8 150.4 604.6 148.4C608.3 145.8 613 147 616.5 152C618.9 155.5 619.6 159.2 619.1 161.7L614.2 165.1L611.9 161.7C616.2 158.1 616.3 155.5 614.8 153.3C613.1 150.9 610.7 150.7 608.5 152.2C607 153.2 606.4 154.5 606.5 156.2L606.8 166.4C606.9 169.8 605.4 172.7 602.9 174.5C598.9 177.3 593.7 175.8 590 170.4C587.1 166.4 586.8 162.5 587.4 160.6Z" fill="black"/>
</svg>
