<svg width="680" height="680" viewBox="0 0 680 680" fill="none" xmlns="http://www.w3.org/2000/svg">
<path d="M13.7004 72.0996L17.0004 70.3996L4.80039 46.8996L1.50039 48.5996L0.400391 46.5996L8.6004 42.2996L27.6004 57.1996L25.8004 33.3996L34.0004 29.0996L35.1004 31.0996L31.8004 32.7996L44.0004 56.3996L47.3004 54.6996L48.4004 56.6996L36.7004 62.6996L35.6004 60.6996L38.8004 58.9996L29.0004 39.9996L30.7004 63.2996L28.1004 64.6996L9.50039 50.1996L19.3004 69.1996L22.5004 67.5996L23.6004 69.5996L14.8004 74.1996L13.7004 72.0996Z" fill="#123F94"/>
<path d="M48.9004 25.9996L58.8004 50.5996L63.1004 48.8996L64.0004 50.9996L50.0004 56.6996L49.1004 54.5996L53.4004 52.8996L43.5004 28.2996L39.2004 29.9996L38.3004 27.8996L52.3004 22.1996L53.2004 24.2996L48.9004 25.9996Z" fill="#123F94"/>
<path d="M64.7004 47.9996L68.3004 46.8996L60.3004 21.5996L56.7004 22.6996L56.0004 20.4996L64.2004 17.8996L83.7004 34.1996L78.0004 15.9996L74.5004 17.0996L73.8004 14.8996L83.4004 11.8996L84.1004 14.0996L80.5004 15.1996L89.2004 42.6996L85.8004 43.7996L64.4004 25.6996L70.8004 46.0996L74.2004 44.9996L74.9004 47.1996L65.4004 50.1996L64.7004 47.9996Z" fill="#123F94"/>
<path d="M97.6004 11.0996L103.6 36.8996L108.1 35.7996L108.6 37.9996L93.9004 41.3996L93.4004 39.1996L97.9004 38.0996L91.9004 12.2996L87.4004 13.3996L86.9004 11.1996L101.6 7.79962L102.1 9.99962L97.6004 11.0996Z" fill="#123F94"/>
<path d="M142.9 24.0996C143.7 30.7996 137.4 34.1996 132.9 34.6996C128.7 35.1996 124.6 33.3996 122.1 29.7996L123.8 28.3996C126 31.3996 129 32.3996 131.9 32.0996C135.1 31.6996 137.9 29.5996 137.3 24.8996C136.8 20.8996 134.5 18.7996 131 19.1996L129.2 19.3996L128.9 17.1996C132 16.7996 135.1 14.2996 134.6 9.99961C134.2 6.99961 132.3 4.49961 129.2 4.89961C126.7 5.19961 124.8 7.19961 125.1 12.6996L121.3 13.1996L120.6 7.39961C122.5 4.89961 125.6 3.29961 129.1 2.79961C134.9 2.09961 139.5 4.79961 140.1 9.49961C140.5 12.7996 138.7 15.1996 136.5 16.5996C138.9 17.1996 142.4 19.5996 142.9 24.0996Z" fill="#123F94"/>
<path d="M146.5 18.8996L157.4 18.2996L157.6 21.0996L146.7 21.6996L146.5 18.8996Z" fill="#123F94"/>
<path d="M190.7 16.1996C190.6 23.6996 185.6 32.1996 175.4 31.9996L160.6 31.6996V29.3996L164.5 29.4996L165 2.99961L161.1 2.89961V0.599609L176 0.999609C186.3 1.09961 190.9 8.09961 190.7 16.1996ZM184.7 16.0996C184.8 8.79961 181.5 3.39961 175.7 3.29961L170.9 3.19961L170.4 29.6996L175.2 29.7996C181.4 29.8996 184.5 22.8996 184.7 16.0996Z" fill="#123F94"/>
<path d="M195 17.9996C196 9.6996 201.2 1.5996 211 2.7996C221.2 3.9996 224 12.4996 223.2 19.5996C222.2 27.7996 217.1 35.9996 207.1 34.7996C196.8 33.5996 194.2 25.0996 195 17.9996ZM216.9 21.9996C217.9 13.4996 216.4 5.5996 210.2 4.7996C204.8 4.0996 202 9.3996 201.2 15.6996C200.2 24.1996 201.8 31.9996 207.9 32.7996C213.4 33.4996 216.2 28.2996 216.9 21.9996Z" fill="#123F94"/>
<path d="M227.3 22.1996C229.2 14.0996 235.2 6.49962 244.8 8.69962C254.9 10.9996 256.8 19.6996 255.2 26.6996C253.4 34.7996 247.4 42.3996 237.6 40.1996C227.4 37.7996 225.7 29.0996 227.3 22.1996ZM248.7 28.3996C250.6 19.9996 249.9 11.9996 243.8 10.5996C238.5 9.39962 235.2 14.2996 233.8 20.4996C231.9 28.8996 232.7 36.7996 238.7 38.1996C244 39.3996 247.3 34.5996 248.7 28.3996Z" fill="#123F94"/>
<path d="M281.9 50.3996L281.2 52.5996L273.1 49.8996L269.3 33.6996L266.8 32.7996L262.9 43.9996L266.4 45.1996L265.7 47.3996L253.1 43.1996L253.8 40.9996L257.3 42.1996L265.8 17.0996L262.3 15.8996L263 13.6996L276.7 18.2996C283.3 20.4996 284.9 25.1996 283.5 29.4996C282.3 32.9996 279.2 35.2996 275.1 35.1996L278.7 49.3996L281.9 50.3996ZM267.4 30.5996L271.5 31.9996C273.8 32.7996 276.6 30.7996 277.7 27.4996C278.8 24.0996 277.9 21.0996 275.5 20.2996L271.4 18.8996L267.4 30.5996Z" fill="#123F94"/>
<path d="M330.2 44.1996L318.2 67.7996L321.5 69.4996L320.5 71.5996L308.6 65.5996L309.6 63.4996L312.9 65.1996L318.7 53.6996L307.7 48.0996L302 59.5996L305.3 61.2996L304.3 63.3996L292.4 57.3996L293.4 55.2996L296.7 56.9996L308.7 33.3996L305.4 31.6996L306.4 29.5996L318.3 35.5996L317.3 37.6996L313.9 35.9996L308.8 45.9996L319.8 51.5996L324.9 41.5996L321.6 39.8996L322.6 37.7996L334.5 43.7996L333.5 45.8996L330.2 44.1996Z" fill="#123F94"/>
<path d="M348.5 86.8996L347.2 88.7996L336 81.5996L337.3 79.6996L340.4 81.6996L342.7 72.7996L335.1 67.8996L327.8 73.4996L330.8 75.3996L329.5 77.2996L321.1 71.7996L322.4 69.8996L325.5 71.8996L349.8 53.2996L352.7 55.1996L345.6 84.9996L348.5 86.8996ZM343.3 70.3996L346 59.5996L345.8 59.4996L337 66.2996L343.3 70.3996Z" fill="#123F94"/>
<path d="M350.9 89.0996L354.5 91.8996L370.8 70.9996L367.4 68.2996L361.6 71.8996L359.1 69.9996L364.5 63.0996L384.6 78.7996L379.2 85.6996L376.7 83.7996L378.7 77.1996L375.3 74.5996L359 95.4996L362.6 98.2996L361.2 100.1L349.4 90.8996L350.9 89.0996Z" fill="#123F94"/>
<path d="M376.7 93.4996C382.4 87.3996 391.1 83.8996 398.5 90.7996C402.1 94.0996 403.1 97.5996 403.6 99.4996L399.2 104.2L396.2 101.4C399.4 97.1996 398.9 93.9996 396.7 91.9996C392.7 88.2996 387.4 90.8996 383.1 95.4996C376.4 102.7 375.3 109.6 379.1 113.1C381.6 115.4 385.2 116.1 389.1 113.3L390.9 115C386.1 118.8 380.6 118.2 376.6 114.4C368.8 107.3 371.8 98.7996 376.7 93.4996Z" fill="#123F94"/>
<path d="M426.1 124.3L406.2 141.8L408.7 144.6L407 146.1L398.2 136.1L399.9 134.6L402.4 137.4L412.1 128.9L403.9 119.6L394.2 128.1L396.7 130.9L395 132.4L386.2 122.4L387.9 120.9L390.4 123.7L410.3 106.2L407.8 103.4L409.5 101.9L418.3 111.9L416.6 113.4L414.1 110.6L405.7 118L413.9 127.3L422.3 119.9L419.8 117.1L421.5 115.6L430.3 125.6L428.6 127.1L426.1 124.3Z" fill="#123F94"/>
</svg>
