<svg width="680" height="680" viewBox="0 0 680 680" fill="none" xmlns="http://www.w3.org/2000/svg">
<path d="M58.5222 32.2422L61.0183 34.9898L80.56 17.1233L78.0638 14.3757L79.711 12.7956L85.9868 19.6032L76.512 41.8122L99.0352 33.9137L105.311 40.7213L103.664 42.3015L101.168 39.5539L81.5294 57.4463L84.0256 60.1939L82.3784 61.7741L73.5547 52.0256L75.2018 50.4455L77.6721 53.0965L93.4883 38.7128L71.4222 46.3854L69.397 44.2363L78.5889 22.5172L62.7727 36.9009L65.1464 39.5777L63.4993 41.1579L56.7784 33.8483L58.5222 32.2422Z" fill="#582216"/>
<path d="M112.162 54.3113L90.9623 70.2409L93.7173 73.9544L91.9218 75.3673L82.7925 63.3196L84.588 61.9067L87.343 65.6202L108.543 49.6906L105.788 45.9771L107.583 44.5642L116.712 56.6119L114.917 58.0248L112.162 54.3113Z" fill="#582216"/>
<path d="M95.0007 75.2669L96.995 78.4596L119.362 64.184L117.368 60.9914L119.312 59.7459L123.946 66.9935L113.248 90.0478L129.353 79.8315L127.384 76.7355L129.328 75.49L134.711 83.9864L132.767 85.2319L130.772 82.0393L106.461 97.5604L104.519 94.5609L116.463 69.2055L98.4148 80.6673L100.357 83.6668L98.4134 84.9123L93.0569 76.5125L95.0007 75.2669Z" fill="#582216"/>
<path d="M139.159 97.4955L115.791 109.969L118.018 114.031L116.022 115.083L108.933 101.764L110.929 100.711L113.156 104.773L136.524 92.3003L134.297 88.2383L136.293 87.1859L143.381 100.505L141.386 101.557L139.159 97.4955Z" fill="#582216"/>
<path d="M135.638 121.836C143.397 118.722 152.77 119.316 156.517 128.665C158.365 133.243 157.744 136.722 157.437 138.667L151.463 141.097L149.918 137.266C154.657 134.857 155.477 131.739 154.315 128.944C152.337 123.884 146.347 123.936 140.443 126.243C131.358 129.816 127.429 135.631 129.329 140.402C130.569 143.486 133.541 145.692 138.281 144.836L139.218 147.173C133.248 148.462 128.568 145.678 126.469 140.547C122.644 130.908 129.013 124.543 135.638 121.836Z" fill="#582216"/>
<path d="M145.835 148.299C153.897 145.931 163.336 147.543 166.188 157.028C169.047 166.926 162.451 172.834 155.548 174.891C147.583 177.232 138.073 175.743 135.195 166.161C132.285 156.07 139.029 150.329 145.835 148.299ZM150.834 170.046C159.089 167.627 165.731 163.052 163.933 157.115C162.439 151.925 156.486 151.346 150.356 153.195C142.101 155.614 135.555 160.163 137.353 166.1C138.944 171.265 144.774 171.773 150.834 170.046Z" fill="#582216"/>
<path d="M151.499 182.187L169.029 178.836L168.361 175.185L170.634 174.782L173.111 187.888L170.837 188.29L170.17 184.639L151.068 188.307C146.451 189.234 144.412 192.058 145.158 195.999C145.8 199.554 149.024 202.314 153.545 201.413L172.742 197.718L172.075 194.067L174.348 193.665L176.286 203.602L174.013 204.004L173.345 200.352L154.34 203.995C148.731 205.084 143.832 202.256 142.581 195.654C141.11 189.009 143.616 183.678 151.499 182.187Z" fill="#582216"/>
<path d="M147.945 210.264L148.323 213.993L174.698 211.585L174.32 207.855L176.645 207.647L177.396 216.245L157.33 231.768L176.343 230.089L175.991 226.457L178.316 226.248L179.237 236.25L176.911 236.459L176.533 232.73L147.833 235.348L147.507 231.812L169.755 214.773L148.513 216.634L148.839 220.17L146.514 220.379L145.619 210.473L147.945 210.264Z" fill="#582216"/>
<path d="M150.447 245.103L150.427 249.664L176.94 249.703L176.916 245.362L170.471 242.947L170.467 239.842L179.177 239.89L179.072 265.386L170.363 265.338L170.359 262.234L176.746 259.797L176.747 255.552L150.234 255.513L150.214 260.074L147.933 260.064L147.973 245.145L150.447 245.103Z" fill="#582216"/>
<path d="M147.5 296.311L145.168 296.108L145.995 287.604L160.912 280.294L161.134 277.646L149.396 276.34L149.046 280.057L146.714 279.854L148.044 266.66L150.376 266.863L150.027 270.58L176.389 273.145L176.738 269.428L179.07 269.631L177.638 283.991C176.906 290.916 172.754 293.582 168.283 293.123C164.566 292.774 161.709 290.226 160.841 286.214L147.831 292.909L147.5 296.311ZM163.537 277.727L163.149 282.076C162.946 284.408 165.435 286.743 168.959 287.145C172.483 287.546 175.148 285.901 175.492 283.324L175.88 278.975L163.537 277.727Z" fill="#582216"/>
<path d="M155.807 315.722L144.003 313.398L143.222 317.438L140.935 317.016L143.663 303.24L145.95 303.663L145.169 307.703L155.781 309.828L172.588 305.325L173.35 301.601L175.637 302.023L173.044 315.141L170.757 314.719L171.403 311.336L158.627 314.656L169.053 323.044L169.815 319.319L172.103 319.742L170.066 329.915L167.779 329.493L168.541 325.769L155.807 315.722Z" fill="#582216"/>
<path d="M141.802 325.273L140.672 328.785L165.913 336.826L167.043 333.314L169.189 333.981L166.378 342.809L142.412 345.711L160.48 361.368L157.67 370.197L155.524 369.529L156.653 366.017L131.386 357.88L130.257 361.392L128.111 360.724L132.096 348.165L134.242 348.832L133.183 352.222L153.572 358.768L135.923 343.516L136.821 340.687L160.182 337.844L139.793 331.298L138.734 334.688L136.588 334.02L139.63 324.509L141.802 325.273Z" fill="#582216"/>
<path d="M116.848 390.556L114.721 389.573L120.169 377.45L122.296 378.433L120.728 381.855L129.889 382.817L133.68 374.554L126.999 368.166L125.476 371.369L123.349 370.386L127.538 361.292L129.665 362.275L128.168 365.575L150.114 386.818L148.662 389.899L118.152 387.308L116.848 390.556ZM132.44 383.065L143.495 384.14L143.637 383.895L135.576 376.22L132.44 383.065Z" fill="#582216"/>
<path d="M116.45 391.387L114.514 394.597L137.372 408.039L139.307 404.829L141.267 405.96L136.928 413.335L111.498 414.248L127.961 423.916L129.799 420.732L131.759 421.863L126.642 430.585L124.682 429.453L126.617 426.243L101.8 411.67L103.594 408.705L131.62 407.821L113.197 397.021L111.332 400.109L109.373 398.977L114.419 390.378L116.45 391.387Z" fill="#582216"/>
</svg>
