<svg width="684" height="684" viewBox="0 0 684 684" fill="none" xmlns="http://www.w3.org/2000/svg">
<path d="M185.701 80.1001L189.001 78.4001L176.801 54.9001L173.501 56.6001L172.401 54.6001L180.601 50.3001L199.601 65.2001L197.801 41.4001L206.001 37.1001L207.101 39.1001L203.801 40.8001L216.001 64.4001L219.301 62.7001L220.401 64.7001L208.701 70.7001L207.601 68.7001L210.801 67.0001L201.001 48.0001L202.701 71.3001L200.101 72.7001L181.501 58.2001L191.301 77.2001L194.501 75.6001L195.601 77.6001L186.801 82.2001L185.701 80.1001Z" fill="#57C4E5"/>
<path d="M220.901 34.0002L230.801 58.6002L235.101 56.9002L236.001 59.0002L222.001 64.7002L221.101 62.6002L225.401 60.9002L215.501 36.3002L211.201 38.0002L210.301 35.9002L224.301 30.2002L225.201 32.3002L220.901 34.0002Z" fill="#57C4E5"/>
<path d="M236.701 56.0004L240.301 54.9004L232.301 29.6004L228.701 30.7004L228.001 28.5004L236.201 25.9004L255.701 42.2004L250.001 24.0004L246.501 25.1004L245.801 22.9004L255.401 19.9004L256.101 22.1004L252.501 23.2004L261.201 50.7004L257.801 51.8004L236.401 33.7004L242.801 54.1004L246.201 53.0004L246.901 55.2004L237.401 58.2004L236.701 56.0004Z" fill="#57C4E5"/>
<path d="M269.601 19.1003L275.601 44.9003L280.101 43.8003L280.601 46.0003L265.901 49.4003L265.401 47.2003L269.901 46.1003L263.901 20.3003L259.401 21.4003L258.901 19.2003L273.601 15.8003L274.101 18.0003L269.601 19.1003Z" fill="#57C4E5"/>
<path d="M292.201 28.8004C291.201 20.5004 294.201 11.6004 304.201 10.4004C309.101 9.8004 312.301 11.3004 314.101 12.1004L314.901 18.5004L310.801 19.0004C309.701 13.8004 306.901 12.2004 303.901 12.6004C298.501 13.2004 297.001 19.0004 297.701 25.3004C298.801 35.0004 303.401 40.3004 308.501 39.7004C311.801 39.3004 314.701 37.0004 315.101 32.2004L317.601 31.9004C317.301 38.0004 313.401 41.8004 307.901 42.5004C297.601 43.7004 293.101 35.9004 292.201 28.8004Z" fill="#57C4E5"/>
<path d="M320.401 25.8002C320.201 17.4002 324.201 8.7002 334.101 8.4002C344.401 8.2002 348.401 16.1002 348.601 23.3002C348.801 31.6002 344.901 40.4002 334.901 40.7002C324.401 40.9002 320.601 32.9002 320.401 25.8002ZM342.701 26.6002C342.501 18.0002 339.801 10.4002 333.601 10.6002C328.201 10.7002 326.101 16.3002 326.301 22.7002C326.501 31.3002 329.201 38.8002 335.401 38.6002C340.801 38.4002 342.801 32.9002 342.701 26.6002Z" fill="#57C4E5"/>
<path d="M350.801 37.5003L354.501 37.8003L356.401 11.4003L352.701 11.1003L352.901 8.80029L361.501 9.40029L373.601 31.8003L375.001 12.7003L371.301 12.4003L371.501 10.1003L381.601 10.8003L381.401 13.1003L377.701 12.8003L375.601 41.5003L372.101 41.2003L358.901 16.5003L357.201 38.0003L360.801 38.3003L360.601 40.6003L350.601 39.9003L350.801 37.5003Z" fill="#57C4E5"/>
<path d="M415.501 19.0003L411.501 18.3003L396.401 44.9003L392.901 44.3003L387.801 14.2003L384.201 13.6003L384.601 11.3003L398.101 13.7003L397.701 16.0003L393.901 15.3003L397.501 38.0003L408.801 17.9003L404.501 17.1003L404.901 14.8003L416.001 16.7003L415.501 19.0003Z" fill="#57C4E5"/>
<path d="M437.001 45.7001L434.701 54.1001L410.801 47.5001L411.401 45.3001L415.001 46.3001L422.101 20.8001L418.501 19.8001L419.101 17.6001L442.601 24.1001L440.301 32.5001L437.101 31.6001L436.501 24.7001L427.801 22.3001L424.801 33.1001L429.601 34.4001L430.601 30.8001L433.401 31.6001L430.801 41.1001L428.001 40.3001L429.001 36.7001L424.201 35.4001L420.801 47.8001L429.901 50.3001L433.901 44.7001L437.001 45.7001Z" fill="#57C4E5"/>
<path d="M465.001 63.1004L464.201 65.3004L456.201 62.2004L453.001 45.8004L450.501 44.8004L446.301 55.8004L449.801 57.1004L449.001 59.3004L436.601 54.6004L437.401 52.4004L440.901 53.7004L450.401 28.9004L446.901 27.6004L447.701 25.4004L461.201 30.6004C467.701 33.1004 469.201 37.9004 467.601 42.0004C466.301 45.5004 463.001 47.6004 459.001 47.3004L462.001 61.7004L465.001 63.1004ZM451.301 42.7004L455.401 44.3004C457.601 45.2004 460.501 43.3004 461.801 40.0004C463.101 36.7004 462.301 33.7004 459.901 32.7004L455.801 31.1004L451.301 42.7004Z" fill="#57C4E5"/>
<path d="M469.201 65.3001L473.301 67.3001L485.001 43.5001L481.101 41.6001L476.101 46.3001L473.301 44.9001L477.101 37.1001L500.001 48.3001L496.201 56.1001L493.401 54.7001L494.001 47.8001L490.201 45.9001L478.501 69.7001L482.601 71.7001L481.601 73.8001L468.201 67.2001L469.201 65.3001Z" fill="#57C4E5"/>
<path d="M511.101 57.5003L497.701 80.4003L501.701 82.8003L500.501 84.8003L487.401 77.2003L488.601 75.2003L492.601 77.6003L506.001 54.7003L502.001 52.3003L503.201 50.3003L516.301 57.9003L515.101 59.9003L511.101 57.5003Z" fill="#57C4E5"/>
<path d="M528.201 92.5003C525.201 96.8003 519.701 97.6003 514.501 94.1003L502.001 85.4003L503.301 83.5003L506.401 85.6003L521.401 63.8003L518.301 61.7003L519.601 59.8003L532.101 68.4003C536.301 71.3003 537.501 75.9003 534.801 79.7003C533.301 81.9003 530.601 82.9003 528.001 82.8003C530.101 85.7003 530.401 89.3003 528.201 92.5003ZM523.201 89.1003C525.101 86.4003 525.001 82.8003 522.501 81.1003L518.501 78.3003L511.201 89.0003L515.301 91.8003C517.301 93.2003 520.801 92.6003 523.201 89.1003ZM526.201 67.1003L519.901 76.3003L523.501 78.7003C525.401 80.0003 528.101 79.3003 530.101 76.4003C532.201 73.4003 531.601 70.6003 529.901 69.5003L526.201 67.1003Z" fill="#57C4E5"/>
<path d="M526.101 99.3001L529.001 101.7L545.901 81.3001L543.001 78.9001L544.501 77.1001L554.701 85.6001L553.201 87.4001L550.301 85.0001L533.401 105.4L540.701 111.4L546.601 108L549.201 110.1L543.601 116.8L524.501 101L526.101 99.3001Z" fill="#57C4E5"/>
<path d="M568.601 129L562.501 135.2L544.801 117.8L546.401 116.2L549.101 118.8L567.701 99.9002L565.001 97.3002L566.601 95.7002L584.001 112.8L577.901 119L575.501 116.6L578.301 110.3L571.901 104L564.101 112L567.701 115.5L570.301 112.8L572.401 114.8L565.501 121.8L563.401 119.8L566.001 117.1L562.401 113.6L553.301 122.8L560.001 129.4L566.201 126.5L568.601 129Z" fill="#57C4E5"/>
</svg>
