<svg width="838" height="838" viewBox="0 0 838 838" fill="none" xmlns="http://www.w3.org/2000/svg">
<path d="M631.523 200.241L634.019 202.989L653.561 185.122L651.065 182.375L652.712 180.795L658.988 187.602L649.513 209.811L672.036 201.913L678.312 208.72L676.665 210.301L674.169 207.553L654.53 225.445L657.027 228.193L655.379 229.773L646.556 220.025L648.203 218.445L650.673 221.096L666.489 206.712L644.423 214.384L642.398 212.235L651.59 190.516L635.774 204.9L638.147 207.577L636.5 209.157L629.779 201.847L631.523 200.241Z" fill="#123F94"/>
<path d="M685.163 222.31L663.963 238.24L666.718 241.953L664.923 243.366L655.793 231.319L657.589 229.906L660.344 233.619L681.543 217.69L678.788 213.976L680.584 212.563L689.713 224.611L687.918 226.024L685.163 222.31Z" fill="#123F94"/>
<path d="M668.002 243.266L669.996 246.459L692.363 232.183L690.369 228.99L692.313 227.745L696.947 234.993L686.249 258.047L702.354 247.831L700.385 244.735L702.329 243.489L707.712 251.985L705.768 253.231L703.773 250.038L679.462 265.559L677.52 262.56L689.464 237.205L671.416 248.666L673.358 251.666L671.414 252.911L666.058 244.512L668.002 243.266Z" fill="#123F94"/>
<path d="M712.159 265.495L688.792 277.968L691.019 282.03L689.023 283.082L681.934 269.763L683.93 268.71L686.157 272.772L709.525 260.299L707.298 256.237L709.294 255.185L716.382 268.504L714.387 269.556L712.159 265.495Z" fill="#123F94"/>
<path d="M711.327 312.616C705.062 315.122 700.148 309.917 698.5 305.7C696.93 301.772 697.607 297.346 700.438 294L702.23 295.279C699.902 298.181 699.712 301.337 700.753 304.061C701.967 307.048 704.72 309.209 709.105 307.413C712.839 305.895 714.272 303.13 712.98 299.853L712.321 298.166L714.368 297.307C715.557 300.198 718.774 302.545 722.798 300.949C725.593 299.786 727.516 297.304 726.327 294.413C725.39 292.076 722.966 290.758 717.732 292.472L716.265 288.93L721.686 286.753C724.593 287.941 726.941 290.522 728.329 293.773C730.507 299.194 729.089 304.336 724.705 306.132C721.621 307.373 718.837 306.255 716.915 304.493C716.957 306.966 715.544 310.968 711.327 312.616Z" fill="#123F94"/>
<path d="M717.282 314.747L720.682 325.12L718.029 326.038L714.629 315.665L717.282 314.747Z" fill="#123F94"/>
<path d="M731.329 356.742C724.059 358.587 714.555 355.957 712.108 346.053L708.567 331.68L710.789 331.084L711.701 334.877L737.428 328.501L736.515 324.709L738.737 324.113L742.207 338.609C744.776 348.584 739.205 354.839 731.329 356.742ZM729.873 350.921C736.95 349.128 741.312 344.543 739.907 338.915L738.762 334.252L713.035 340.628L714.181 345.29C715.689 351.305 723.253 352.488 729.873 350.921Z" fill="#123F94"/>
<path d="M730.704 361.362C738.98 360.179 748.149 363.106 749.527 372.882C751.008 383.045 743.522 387.95 736.457 389.015C728.277 390.171 719.037 387.367 717.608 377.397C716.101 367.138 723.638 362.426 730.704 361.362ZM732.508 383.551C740.977 382.317 748.22 378.823 747.388 372.627C746.666 367.23 740.822 365.897 734.53 366.755C726.061 367.989 718.941 371.553 719.747 377.653C720.494 383.146 726.241 384.505 732.508 383.551Z" fill="#123F94"/>
<path d="M735.007 393.648C743.322 393.387 752.216 397.215 752.576 407.058C752.968 417.409 745.057 421.496 737.881 421.762C729.591 422.12 720.697 418.291 720.286 408.256C719.964 397.782 727.928 393.888 735.007 393.648ZM734.557 415.924C743.162 415.585 750.708 412.838 750.482 406.583C750.269 401.153 744.682 399.234 738.331 399.487C729.725 399.825 722.302 402.643 722.502 408.801C722.715 414.231 728.205 416.176 734.557 415.924Z" fill="#123F94"/>
<path d="M721.899 453.686L719.593 453.58L720.104 445.057L734.769 437.193L734.991 434.546L723.163 433.677L722.91 437.369L720.604 437.262L721.4 424.004L723.706 424.111L723.453 427.802L749.897 429.516L750.151 425.825L752.457 425.932L751.559 440.355C751.142 447.3 747.017 450.062 742.501 449.822C738.81 449.569 735.786 447.17 734.821 443.184L722.037 450.336L721.899 453.686ZM737.271 434.556L736.98 438.878C736.803 441.307 739.459 443.494 742.932 443.702C746.5 443.885 749.165 442.239 749.317 439.714L749.608 435.391L737.271 434.556Z" fill="#123F94"/>
<path d="M740.389 498.736L714.487 493.253L713.699 496.88L711.412 496.458L714.127 483.411L716.415 483.833L715.627 487.46L728.236 490.086L730.798 478.012L718.215 475.482L717.427 479.11L715.139 478.688L717.855 465.64L720.142 466.063L719.354 469.69L745.256 475.173L746.044 471.546L748.331 471.968L745.616 485.015L743.328 484.593L744.091 480.869L733.111 478.531L730.549 490.605L741.528 492.943L742.316 489.316L744.604 489.738L741.888 502.786L739.601 502.363L740.389 498.736Z" fill="#123F94"/>
<path d="M703.88 527.464L701.708 526.7L705.764 514.018L707.936 514.782L706.806 518.294L715.998 518.212L718.764 509.603L711.466 504.001L710.407 507.39L708.235 506.627L711.374 497.089L713.546 497.853L712.416 501.365L736.672 520.023L735.587 523.316L704.965 524.171L703.88 527.464ZM718.472 518.17L729.603 517.983L729.648 517.764L720.802 511.024L718.472 518.17Z" fill="#123F94"/>
<path d="M702.376 530.351L700.603 534.553L725.01 544.889L726.738 540.906L721.759 536.235L722.948 533.329L731.01 536.759L721.047 560.237L712.985 556.807L714.173 553.901L721.066 554.124L722.697 550.167L698.291 539.832L696.518 544.034L694.417 543.147L700.249 529.368L702.376 530.351Z" fill="#123F94"/>
<path d="M704.804 556.411C712.171 560.338 717.803 567.836 713.054 576.769C710.798 581.101 707.676 582.973 705.97 583.947L700.292 580.914L702.22 577.291C707.105 579.295 710.066 577.984 711.429 575.341C713.968 570.52 710.084 566.074 704.528 563.111C695.839 558.502 688.89 559.226 686.493 563.802C684.918 566.812 685.174 570.471 688.888 573.513L687.711 575.692C682.799 572.039 681.955 566.571 684.59 561.724C689.429 552.352 698.416 553.05 704.804 556.411Z" fill="#123F94"/>
<path d="M687.839 612.099L665.785 597.407L663.727 600.546L661.838 599.293L669.22 588.204L671.109 589.458L669.051 592.598L679.772 599.767L686.633 589.439L675.912 582.27L673.854 585.409L671.965 584.156L679.347 573.067L681.236 574.321L679.178 577.461L701.233 592.153L703.29 589.014L705.179 590.268L697.797 601.356L695.909 600.102L697.966 596.963L688.644 590.764L681.783 601.092L691.105 607.29L693.163 604.151L695.052 605.404L687.67 616.493L685.781 615.239L687.839 612.099Z" fill="#123F94"/>
</svg>
