<svg width="684" height="684" viewBox="0 0 684 684" fill="none" xmlns="http://www.w3.org/2000/svg">
<path d="M185.701 80.0991L189.001 78.3991L176.801 54.8991L173.501 56.5991L172.401 54.5991L180.601 50.2991L199.601 65.1991L197.801 41.3991L206.001 37.0991L207.101 39.0991L203.801 40.7991L216.001 64.3991L219.301 62.6991L220.401 64.6991L208.701 70.6991L207.601 68.6991L210.801 66.9991L201.001 47.9991L202.701 71.2991L200.101 72.6991L181.501 58.1991L191.301 77.1991L194.501 75.5991L195.601 77.5991L186.801 82.1991L185.701 80.0991Z" fill="#E6001D"/>
<path d="M220.901 33.9992L230.801 58.5992L235.101 56.8992L236.001 58.9992L222.001 64.6992L221.101 62.5992L225.401 60.8992L215.501 36.2992L211.201 37.9992L210.301 35.8992L224.301 30.1992L225.201 32.2992L220.901 33.9992Z" fill="#E6001D"/>
<path d="M236.701 55.9994L240.301 54.8994L232.301 29.5994L228.701 30.6994L228.001 28.4994L236.201 25.8994L255.701 42.1994L250.001 23.9994L246.501 25.0994L245.801 22.8994L255.401 19.8994L256.101 22.0994L252.501 23.1994L261.201 50.6994L257.801 51.7994L236.401 33.6994L242.801 54.0994L246.201 52.9994L246.901 55.1994L237.401 58.1994L236.701 55.9994Z" fill="#E6001D"/>
<path d="M269.601 19.0993L275.601 44.8993L280.101 43.7993L280.601 45.9993L265.901 49.3993L265.401 47.1993L269.901 46.0993L263.901 20.2993L259.401 21.3993L258.901 19.1993L273.601 15.7993L274.101 17.9993L269.601 19.0993Z" fill="#E6001D"/>
<path d="M292.201 28.7994C291.201 20.4994 294.201 11.5994 304.201 10.3994C309.101 9.79942 312.301 11.2994 314.101 12.0994L314.901 18.4994L310.801 18.9994C309.701 13.7994 306.901 12.1994 303.901 12.5994C298.501 13.1994 297.001 18.9994 297.701 25.2994C298.801 34.9994 303.401 40.2994 308.501 39.6994C311.801 39.2994 314.701 36.9994 315.101 32.1994L317.601 31.8994C317.301 37.9994 313.401 41.7994 307.901 42.4994C297.601 43.6994 293.101 35.8994 292.201 28.7994Z" fill="#E6001D"/>
<path d="M320.501 38.199L324.201 38.099L323.401 11.599L319.701 11.699L319.601 9.39902L332.901 8.99902L333.001 11.299L329.301 11.399L330.101 37.899L339.601 37.599L341.801 31.099L345.201 30.999L345.501 39.699L320.701 40.399L320.501 38.199Z" fill="#E6001D"/>
<path d="M349.301 28.9992L350.301 11.1992L346.601 10.9992L346.701 8.69922L360.001 9.39922L359.901 11.6992L356.201 11.4992L355.001 30.8992C354.701 35.5992 357.001 38.2992 361.101 38.4992C364.701 38.6992 368.101 36.2992 368.401 31.6992L369.501 12.1992L365.801 11.9992L365.901 9.69922L376.001 10.2992L375.901 12.5992L372.201 12.3992L371.001 31.6992C370.701 37.3992 366.801 41.4992 360.001 41.0992C353.401 40.6992 348.801 36.9992 349.301 28.9992Z" fill="#E6001D"/>
<path d="M402.001 36.4993C401.201 41.6993 396.601 44.7993 390.401 43.8993L375.401 41.5993L375.701 39.2993L379.401 39.8993L383.401 13.6993L379.701 13.0993L380.001 10.7993L395.001 13.0993C400.001 13.8993 403.101 17.4993 402.401 22.0993C402.001 24.7993 400.001 26.7993 397.601 27.8993C400.701 29.5993 402.601 32.6993 402.001 36.4993ZM396.001 35.5993C396.501 32.2993 394.901 29.0993 391.901 28.6993L387.101 27.9993L385.101 40.7993L390.001 41.4993C392.501 41.7993 395.401 39.7993 396.001 35.5993ZM389.101 14.4993L387.401 25.5993L391.701 26.2993C394.001 26.5993 396.101 24.7993 396.601 21.3993C397.201 17.7993 395.401 15.5993 393.401 15.2993L389.101 14.4993Z" fill="#E6001D"/>
<path d="M403.101 43.1994L406.701 44.1994L413.601 18.5994L410.001 17.5994L410.601 15.3994L419.501 17.7994L423.501 41.5994L438.201 22.7994L447.101 25.1994L446.501 27.3994L442.901 26.3994L436.101 51.9994L439.701 52.9994L439.101 55.1994L426.401 51.7994L427.001 49.5994L430.501 50.4994L436.101 29.7994L421.701 48.0994L418.801 47.2994L414.801 24.0994L409.301 44.7994L412.701 45.6994L412.101 47.8994L402.501 45.2994L403.101 43.1994Z" fill="#E6001D"/>
<path d="M469.401 64.9994L468.501 67.0994L456.101 62.1994L457.001 60.0994L460.501 61.4994L461.001 52.2994L452.601 48.8994L446.601 55.7994L449.901 57.0994L449.001 59.1994L439.701 55.4994L440.601 53.3994L444.001 54.7994L464.201 31.8994L467.401 33.1994L466.301 63.7994L469.401 64.9994ZM461.101 49.7994L461.701 38.6994L461.501 38.5994L454.201 46.9994L461.101 49.7994Z" fill="#E6001D"/>
<path d="M470.201 65.499L473.501 67.199L485.801 43.699L482.501 41.999L483.601 39.999L491.201 43.999L493.401 69.299L502.201 52.399L498.901 50.699L500.001 48.699L508.901 53.399L507.801 55.399L504.501 53.699L491.201 78.999L488.101 77.399L485.801 49.499L475.901 68.399L479.101 70.099L478.001 72.099L469.201 67.499L470.201 65.499Z" fill="#E6001D"/>
</svg>
