<svg width="680" height="680" viewBox="0 0 680 680" fill="none" xmlns="http://www.w3.org/2000/svg">
<path d="M57.5222 32.2422L60.0183 34.9898L79.56 17.1233L77.0638 14.3757L78.711 12.7956L84.9868 19.6032L75.512 41.8122L98.0352 33.9137L104.311 40.7213L102.664 42.3015L100.168 39.5539L80.5294 57.4463L83.0256 60.1939L81.3784 61.7741L72.5547 52.0256L74.2018 50.4455L76.6721 53.0965L92.4883 38.7128L70.4222 46.3854L68.397 44.2363L77.5889 22.5172L61.7727 36.9009L64.1464 39.5777L62.4993 41.1579L55.7784 33.8483L57.5222 32.2422Z" fill="#57C4E5"/>
<path d="M111.162 54.3113L89.9623 70.2409L92.7173 73.9544L90.9218 75.3673L81.7925 63.3196L83.588 61.9067L86.343 65.6202L107.543 49.6906L104.788 45.9771L106.583 44.5642L115.712 56.6119L113.917 58.0248L111.162 54.3113Z" fill="#57C4E5"/>
<path d="M94.0007 75.2669L95.995 78.4596L118.362 64.184L116.368 60.9914L118.312 59.7459L122.946 66.9935L112.248 90.0478L128.353 79.8315L126.384 76.7355L128.328 75.49L133.711 83.9864L131.767 85.2319L129.772 82.0393L105.461 97.5604L103.519 94.5609L115.463 69.2055L97.4148 80.6673L99.3573 83.6668L97.4134 84.9123L92.0569 76.5125L94.0007 75.2669Z" fill="#57C4E5"/>
<path d="M138.159 97.4955L114.791 109.969L117.018 114.031L115.022 115.083L107.933 101.764L109.929 100.711L112.156 104.773L135.524 92.3003L133.297 88.2383L135.293 87.1859L142.381 100.505L140.386 101.557L138.159 97.4955Z" fill="#57C4E5"/>
<path d="M134.638 121.836C142.397 118.722 151.77 119.316 155.517 128.665C157.365 133.243 156.744 136.722 156.437 138.667L150.463 141.097L148.918 137.266C153.657 134.857 154.477 131.739 153.315 128.944C151.337 123.884 145.347 123.936 139.443 126.243C130.358 129.816 126.429 135.631 128.329 140.402C129.569 143.486 132.541 145.692 137.281 144.836L138.218 147.173C132.248 148.462 127.568 145.678 125.469 140.547C121.644 130.908 128.013 124.543 134.638 121.836Z" fill="#57C4E5"/>
<path d="M144.835 148.299C152.897 145.931 162.336 147.543 165.188 157.028C168.047 166.926 161.451 172.834 154.548 174.891C146.583 177.232 137.073 175.743 134.195 166.161C131.285 156.07 138.029 150.329 144.835 148.299ZM149.834 170.046C158.089 167.627 164.731 163.052 162.933 157.115C161.439 151.925 155.486 151.346 149.356 153.195C141.101 155.614 134.555 160.163 136.353 166.1C137.944 171.265 143.774 171.773 149.834 170.046Z" fill="#57C4E5"/>
<path d="M141.402 180.691L142.069 184.342L168.062 179.345L167.394 175.693L169.667 175.291L171.313 183.754L152.808 201.239L171.62 197.648L170.952 193.996L173.226 193.594L175.163 203.531L172.89 203.933L172.222 200.282L143.957 205.681L143.341 202.223L163.782 183.08L142.575 187.002L143.217 190.557L140.944 190.959L139.032 181.119L141.402 180.691Z" fill="#57C4E5"/>
<path d="M176.017 238.398L175.658 234.353L146.056 226.652L145.73 223.116L173.484 210.4L173.132 206.767L175.457 206.558L176.633 220.219L174.308 220.428L174 216.577L153.006 225.929L175.345 231.642L175.005 227.281L177.33 227.072L178.368 238.286L176.017 238.398Z" fill="#57C4E5"/>
<path d="M155.791 266.076L147.082 266.029L147.271 241.235L149.552 241.245L149.518 244.981L175.986 245.239L176.021 241.503L178.301 241.513L178.105 265.895L169.396 265.847L169.437 262.523L175.946 260.158L176.013 251.133L164.804 251.031L164.791 256.004L168.527 256.038L168.479 258.949L158.63 258.897L158.678 255.985L162.414 256.019L162.427 251.046L149.57 250.972L149.51 260.409L155.955 262.823L155.791 266.076Z" fill="#57C4E5"/>
<path d="M146.231 297.625L143.899 297.422L144.823 288.892L159.836 281.557L160.155 278.883L148.442 277.673L148.093 281.39L145.76 281.187L147.091 267.993L149.423 268.197L149.073 271.914L175.487 274.671L175.837 270.954L178.169 271.157L176.64 285.543C175.908 292.469 171.659 295.16 167.285 294.676C163.568 294.326 160.685 291.682 159.94 287.741L146.807 294.365L146.231 297.625ZM162.39 279.112L161.906 283.487C161.606 285.845 164.192 288.154 167.716 288.556C171.24 288.957 173.93 287.408 174.275 284.831L174.76 280.457L162.39 279.112Z" fill="#57C4E5"/>
<path d="M145.193 302.252L144.322 306.73L170.34 311.871L171.165 307.612L165.331 303.999L165.959 300.932L174.477 302.584L169.585 327.602L161.068 325.951L161.695 322.884L168.515 321.677L169.367 317.515L143.35 312.374L142.479 316.852L140.192 316.429L143.099 301.778L145.193 302.252Z" fill="#57C4E5"/>
<path d="M163.572 340.705L137.984 333.689L136.701 338.174L134.459 337.532L138.409 322.912L140.651 323.553L139.369 328.038L164.956 335.054L166.239 330.569L168.482 331.211L164.531 345.832L162.289 345.19L163.572 340.705Z" fill="#57C4E5"/>
<path d="M134.19 366.281C129.26 364.496 127.064 359.391 129.099 353.462L134.267 339.136L136.439 339.9L135.213 343.438L160.152 352.285L161.378 348.747L163.55 349.511L158.478 363.811C156.764 368.618 152.632 370.968 148.262 369.343C145.749 368.464 144.084 366.115 143.508 363.577C141.25 366.357 137.851 367.578 134.19 366.281ZM136.18 360.572C139.28 361.708 142.731 360.68 143.726 357.825L145.396 353.237L133.171 348.955L131.528 353.64C130.693 355.934 132.178 359.159 136.18 360.572ZM158.207 357.775L147.69 354.071L146.304 358.17C145.54 360.341 146.915 362.768 150.233 363.949C153.675 365.201 156.224 363.897 156.846 361.97L158.207 357.775Z" fill="#57C4E5"/>
<path d="M127.078 366.013L125.511 369.435L149.59 380.479L151.157 377.057L153.284 378.04L147.714 390.092L145.587 389.109L147.155 385.687L123.076 374.643L119.169 383.247L123.981 388.066L122.625 391.121L114.704 387.446L125.022 364.907L127.078 366.013Z" fill="#57C4E5"/>
<path d="M109.39 414.751L101.823 410.464L114.049 388.864L116.008 389.995L114.196 393.276L137.266 406.351L139.078 403.07L141.038 404.201L129.024 425.434L121.456 421.146L123.154 418.207L129.964 419.281L134.392 411.469L124.646 406.005L122.197 410.388L125.478 412.201L124.09 414.747L115.543 409.894L116.931 407.348L120.212 409.16L122.661 404.777L111.419 398.368L106.778 406.548L111.184 411.786L109.39 414.751Z" fill="#57C4E5"/>
</svg>
