<svg width="684" height="684" viewBox="0 0 684 684" fill="none" xmlns="http://www.w3.org/2000/svg">
<path d="M185.701 80.0996L189.001 78.3996L176.801 54.8996L173.501 56.5996L172.401 54.5996L180.601 50.2996L199.601 65.1996L197.801 41.3996L206.001 37.0996L207.101 39.0996L203.801 40.7996L216.001 64.3996L219.301 62.6996L220.401 64.6996L208.701 70.6996L207.601 68.6996L210.801 66.9996L201.001 47.9996L202.701 71.2996L200.101 72.6996L181.501 58.1996L191.301 77.1996L194.501 75.5996L195.601 77.5996L186.801 82.1996L185.701 80.0996Z" fill="#006F2B"/>
<path d="M220.901 33.9997L230.801 58.5997L235.101 56.8997L236.001 58.9997L222.001 64.6997L221.101 62.5997L225.401 60.8997L215.501 36.2997L211.201 37.9997L210.301 35.8997L224.301 30.1997L225.201 32.2997L220.901 33.9997Z" fill="#006F2B"/>
<path d="M236.701 55.9994L240.301 54.8994L232.301 29.5994L228.701 30.6994L228.001 28.4994L236.201 25.8994L255.701 42.1994L250.001 23.9994L246.501 25.0994L245.801 22.8994L255.401 19.8994L256.101 22.0994L252.501 23.1994L261.201 50.6994L257.801 51.7994L236.401 33.6994L242.801 54.0994L246.201 52.9994L246.901 55.1994L237.401 58.1994L236.701 55.9994Z" fill="#006F2B"/>
<path d="M269.601 19.0998L275.601 44.8998L280.101 43.7998L280.601 45.9998L265.901 49.3998L265.401 47.1998L269.901 46.0998L263.901 20.2998L259.401 21.3998L258.901 19.1998L273.601 15.7998L274.101 17.9998L269.601 19.0998Z" fill="#006F2B"/>
<path d="M314.401 30.9997C315.301 38.3997 309.001 42.2997 304.401 42.7997C300.301 43.2997 296.201 41.5997 293.901 38.0997L295.501 36.7997C297.401 39.5997 300.501 40.5997 303.101 40.2997C306.101 39.8997 309.501 37.4997 308.801 32.0997C308.201 26.6997 304.901 24.8997 301.701 25.2997C299.701 25.4997 298.101 26.5997 297.201 27.9997L294.701 28.2997L294.001 12.1997L310.301 10.1997L310.901 15.2997L296.701 16.9997L297.001 24.9997C298.101 23.6997 300.101 22.3997 303.001 22.0997C308.401 21.4997 313.601 24.4997 314.401 30.9997Z" fill="#006F2B"/>
<path d="M318.501 26.8998L329.401 26.2998L329.601 29.0998L318.701 29.6998L318.501 26.8998Z" fill="#006F2B"/>
<path d="M362.701 24.1996C362.601 31.6996 357.601 40.1996 347.401 39.9996L332.601 39.6996V37.3996L336.501 37.4996L337.001 10.9996L333.101 10.8996V8.59961L348.001 8.99961C358.301 9.09961 362.901 16.0996 362.701 24.1996ZM356.701 24.0996C356.801 16.7996 353.501 11.3996 347.701 11.2996L342.901 11.1996L342.401 37.6996L347.201 37.7996C353.401 37.8996 356.501 30.8996 356.701 24.0996Z" fill="#006F2B"/>
<path d="M367.001 25.9998C368.001 17.6998 373.201 9.59985 383.001 10.7998C393.201 11.9998 396.001 20.4998 395.201 27.5998C394.201 35.7998 389.101 43.9998 379.101 42.7998C368.801 41.5998 366.201 33.0998 367.001 25.9998ZM388.901 29.9998C389.901 21.4998 388.401 13.5998 382.201 12.7998C376.801 12.0998 374.001 17.3998 373.201 23.6998C372.201 32.1998 373.801 39.9998 379.901 40.7998C385.401 41.4998 388.201 36.2998 388.901 29.9998Z" fill="#006F2B"/>
<path d="M399.301 30.1997C401.201 22.0997 407.201 14.4997 416.801 16.6997C426.901 18.9997 428.801 27.6997 427.201 34.6997C425.401 42.7997 419.401 50.3997 409.601 48.1997C399.401 45.7997 397.701 37.0997 399.301 30.1997ZM420.701 36.3997C422.601 27.9997 421.901 19.9997 415.801 18.5997C410.501 17.3997 407.201 22.2997 405.801 28.4997C403.901 36.8997 404.701 44.7997 410.701 46.1997C416.001 47.3997 419.301 42.5997 420.701 36.3997Z" fill="#006F2B"/>
<path d="M453.901 58.3997L453.201 60.5997L445.101 57.8997L441.301 41.6997L438.801 40.7997L434.901 51.9997L438.401 53.1997L437.701 55.3997L425.101 51.1997L425.801 48.9997L429.301 50.1997L437.801 25.0997L434.301 23.8997L435.001 21.6997L448.701 26.2997C455.301 28.4997 456.901 33.1997 455.501 37.4997C454.301 40.9997 451.201 43.2997 447.101 43.1997L450.701 57.3997L453.901 58.3997ZM439.401 38.5997L443.501 39.9997C445.801 40.7997 448.601 38.7997 449.701 35.4997C450.801 32.0997 449.901 29.0997 447.501 28.2997L443.401 26.8997L439.401 38.5997Z" fill="#006F2B"/>
<path d="M502.201 52.1996L490.201 75.7996L493.501 77.4996L492.501 79.5996L480.601 73.5996L481.601 71.4996L484.901 73.1996L490.701 61.6996L479.701 56.0996L474.001 67.5996L477.301 69.2996L476.301 71.3996L464.401 65.3996L465.401 63.2996L468.701 64.9996L480.701 41.3996L477.401 39.6996L478.401 37.5996L490.301 43.5996L489.301 45.6996L485.901 43.9996L480.801 53.9996L491.801 59.5996L496.901 49.5996L493.601 47.8996L494.601 45.7996L506.501 51.7996L505.501 53.8996L502.201 52.1996Z" fill="#006F2B"/>
<path d="M520.501 94.8998L519.201 96.7998L508.001 89.5998L509.301 87.6998L512.401 89.6998L514.701 80.7998L507.101 75.8998L499.801 81.4998L502.801 83.3998L501.501 85.2998L493.101 79.7998L494.401 77.8998L497.501 79.8998L521.801 61.2998L524.701 63.1998L517.601 92.9998L520.501 94.8998ZM515.301 78.3998L518.001 67.5998L517.801 67.4998L509.001 74.2998L515.301 78.3998Z" fill="#006F2B"/>
<path d="M522.901 97.0996L526.501 99.8996L542.801 78.9996L539.401 76.2996L533.601 79.8996L531.101 77.9996L536.501 71.0996L556.601 86.7996L551.201 93.6996L548.701 91.7996L550.701 85.1996L547.301 82.5996L531.001 103.5L534.601 106.3L533.201 108.1L521.401 98.8996L522.901 97.0996Z" fill="#006F2B"/>
<path d="M548.701 101.5C554.401 95.3995 563.101 91.8995 570.501 98.7995C574.101 102.1 575.101 105.6 575.601 107.5L571.201 112.2L568.201 109.4C571.401 105.2 570.901 102 568.701 99.9995C564.701 96.2995 559.401 98.8995 555.101 103.5C548.401 110.7 547.301 117.6 551.101 121.1C553.601 123.4 557.201 124.1 561.101 121.3L562.901 123C558.101 126.8 552.601 126.2 548.601 122.4C540.801 115.3 543.801 106.8 548.701 101.5Z" fill="#006F2B"/>
<path d="M598.101 132.299L578.201 149.799L580.701 152.599L579.001 154.099L570.201 144.099L571.901 142.599L574.401 145.399L584.101 136.899L575.901 127.599L566.201 136.099L568.701 138.899L567.001 140.399L558.201 130.399L559.901 128.899L562.401 131.699L582.301 114.199L579.801 111.399L581.501 109.899L590.301 119.899L588.601 121.399L586.101 118.599L577.701 125.999L585.901 135.299L594.301 127.899L591.801 125.099L593.501 123.599L602.301 133.599L600.601 135.099L598.101 132.299Z" fill="#006F2B"/>
</svg>
