<svg width="680" height="680" viewBox="0 0 680 680" fill="none" xmlns="http://www.w3.org/2000/svg">
<path d="M75.5226 32.2421L78.0188 34.9897L97.5605 17.1232L95.0643 14.3756L96.7115 12.7954L102.987 19.6031L93.5125 41.8121L116.036 33.9136L122.311 40.7212L120.664 42.3014L118.168 39.5538L98.5299 57.4462L101.026 60.1938L99.3789 61.774L90.5552 52.0255L92.2023 50.4454L94.6726 53.0964L110.489 38.7127L88.4227 46.3853L86.3975 44.2362L95.5894 22.5171L79.7732 36.9008L82.1469 39.5776L80.4998 41.1578L73.7789 33.8482L75.5226 32.2421Z" fill="#006F2B"/>
<path d="M129.162 54.3112L107.963 70.2408L110.718 73.9543L108.922 75.3671L99.793 63.3194L101.589 61.9066L104.344 65.6201L125.543 49.6905L122.788 45.977L124.584 44.5641L133.713 56.6118L131.917 58.0247L129.162 54.3112Z" fill="#006F2B"/>
<path d="M112.001 75.2668L113.995 78.4595L136.363 64.1839L134.369 60.9913L136.312 59.7457L140.946 66.9934L130.249 90.0477L146.353 79.8314L144.385 76.7354L146.329 75.4898L151.711 83.9863L149.767 85.2318L147.773 82.0392L123.462 97.5603L121.519 94.5608L133.464 69.2054L115.415 80.6672L117.358 83.6667L115.414 84.9122L110.057 76.5124L112.001 75.2668Z" fill="#006F2B"/>
<path d="M156.159 97.4954L132.791 109.968L135.018 114.03L133.023 115.083L125.934 101.764L127.929 100.711L130.157 104.773L153.525 92.3002L151.297 88.2382L153.293 87.1858L160.382 100.505L158.386 101.557L156.159 97.4954Z" fill="#006F2B"/>
<path d="M156.26 143.849C149.345 146.633 143.947 141.557 142.273 137.244C140.729 133.413 141.31 129.012 144.096 125.885L145.766 127.094C143.553 129.654 143.389 132.907 144.352 135.341C145.515 138.135 148.713 140.798 153.748 138.724C158.808 136.747 159.693 133.094 158.478 130.106C157.768 128.226 156.291 126.965 154.706 126.458L153.769 124.121L169.139 119.278L175.29 134.505L170.519 136.405L165.201 123.128L157.552 125.489C159.092 126.215 160.865 127.81 161.906 130.534C163.883 135.594 162.331 141.394 156.26 143.849Z" fill="#006F2B"/>
<path d="M161.281 146.748L164.682 157.121L162.029 158.039L158.628 147.666L161.281 146.748Z" fill="#006F2B"/>
<path d="M175.329 188.743C168.059 190.588 158.554 187.958 156.107 178.054L152.567 163.68L154.788 163.085L155.701 166.878L181.427 160.502L180.515 156.709L182.736 156.114L186.206 170.61C188.776 180.585 183.205 186.84 175.329 188.743ZM173.873 182.922C180.95 181.129 185.312 176.544 183.907 170.915L182.761 166.253L157.035 172.629L158.181 177.291C159.689 183.306 167.252 184.488 173.873 182.922Z" fill="#006F2B"/>
<path d="M174.703 193.362C182.979 192.18 192.149 195.106 193.526 204.883C195.007 215.046 187.521 219.951 180.456 221.016C172.277 222.172 163.036 219.368 161.607 209.398C160.101 199.139 167.638 194.427 174.703 193.362ZM176.508 215.551C184.977 214.317 192.219 210.824 191.387 204.628C190.666 199.231 184.822 197.898 178.529 198.756C170.06 199.99 162.94 203.554 163.746 209.653C164.494 215.147 170.241 216.506 176.508 215.551Z" fill="#006F2B"/>
<path d="M179.006 225.649C187.322 225.388 196.216 229.216 196.575 239.058C196.968 249.41 189.056 253.497 181.88 253.763C173.591 254.121 164.697 250.292 164.285 240.257C163.964 229.783 171.927 225.889 179.006 225.649ZM178.556 247.924C187.162 247.586 194.708 244.839 194.481 238.584C194.269 233.154 188.682 231.235 182.33 231.487C173.725 231.826 166.301 234.644 166.502 240.802C166.714 246.232 172.205 248.177 178.556 247.924Z" fill="#006F2B"/>
<path d="M165.898 285.687L163.592 285.58L164.104 277.058L178.768 269.194L178.991 266.546L167.163 265.678L166.91 269.369L164.603 269.263L165.399 256.005L167.705 256.112L167.452 259.803L193.897 261.517L194.15 257.826L196.456 257.932L195.559 272.356C195.142 279.301 191.016 282.063 186.5 281.823C182.809 281.57 179.785 279.171 178.821 275.185L166.036 282.337L165.898 285.687ZM181.271 266.557L180.98 270.879C180.802 273.308 183.459 275.495 186.931 275.703C190.5 275.886 193.165 274.24 193.316 271.715L193.608 267.392L181.271 266.557Z" fill="#006F2B"/>
<path d="M184.388 330.737L158.487 325.254L157.699 328.881L155.411 328.459L158.127 315.411L160.414 315.834L159.626 319.461L172.235 322.087L174.798 310.013L162.214 307.483L161.426 311.111L159.139 310.688L161.855 297.641L164.142 298.063L163.354 301.691L189.256 307.174L190.044 303.546L192.331 303.969L189.615 317.016L187.328 316.594L188.09 312.87L177.111 310.532L174.549 322.606L185.528 324.944L186.316 321.317L188.603 321.739L185.887 334.787L183.6 334.364L184.388 330.737Z" fill="#006F2B"/>
<path d="M147.88 359.465L145.708 358.701L149.764 346.019L151.935 346.783L150.806 350.295L159.998 350.213L162.764 341.604L155.465 336.002L154.407 339.391L152.235 338.627L155.373 329.09L157.545 329.854L156.416 333.366L180.671 352.024L179.586 355.317L148.964 356.172L147.88 359.465ZM162.471 350.171L173.602 349.984L173.647 349.765L164.801 343.025L162.471 350.171Z" fill="#006F2B"/>
<path d="M146.376 362.352L144.603 366.554L169.009 376.89L170.737 372.907L165.759 368.236L166.947 365.329L175.01 368.76L165.047 392.238L156.984 388.808L158.173 385.901L165.065 386.125L166.697 382.168L142.29 371.833L140.517 376.035L138.416 375.148L144.249 361.369L146.376 362.352Z" fill="#006F2B"/>
<path d="M148.803 388.412C156.171 392.339 161.803 399.837 157.053 408.77C154.798 413.102 151.676 414.974 149.97 415.948L144.291 412.915L146.219 409.292C151.104 411.296 154.066 409.985 155.428 407.342C157.967 402.521 154.084 398.074 148.528 395.112C139.839 390.503 132.889 391.227 130.492 395.803C128.918 398.813 129.173 402.472 132.887 405.514L131.711 407.693C126.798 404.04 125.954 398.572 128.589 393.725C133.429 384.353 142.416 385.051 148.803 388.412Z" fill="#006F2B"/>
<path d="M131.838 444.1L109.784 429.408L107.727 432.547L105.838 431.293L113.219 420.205L115.108 421.459L113.051 424.598L123.772 431.768L130.632 421.44L119.911 414.271L117.854 417.41L115.965 416.156L123.347 405.068L125.236 406.322L123.178 409.461L145.232 424.154L147.29 421.015L149.179 422.268L141.797 433.357L139.908 432.103L141.966 428.963L132.644 422.765L125.783 433.092L135.105 439.291L137.162 436.151L139.051 437.405L131.67 448.494L129.781 447.24L131.838 444.1Z" fill="#006F2B"/>
</svg>
