<svg width="684" height="684" viewBox="0 0 684 684" fill="none" xmlns="http://www.w3.org/2000/svg">
<path d="M185.701 80.1001L189.001 78.4001L176.801 54.9001L173.501 56.6001L172.401 54.6001L180.601 50.3001L199.601 65.2001L197.801 41.4001L206.001 37.1001L207.101 39.1001L203.801 40.8001L216.001 64.4001L219.301 62.7001L220.401 64.7001L208.701 70.7001L207.601 68.7001L210.801 67.0001L201.001 48.0001L202.701 71.3001L200.101 72.7001L181.501 58.2001L191.301 77.2001L194.501 75.6001L195.601 77.6001L186.801 82.2001L185.701 80.1001Z" fill="#582216"/>
<path d="M220.901 34.0002L230.801 58.6002L235.101 56.9002L236.001 59.0002L222.001 64.7002L221.101 62.6002L225.401 60.9002L215.501 36.3002L211.201 38.0002L210.301 35.9002L224.301 30.2002L225.201 32.3002L220.901 34.0002Z" fill="#582216"/>
<path d="M236.701 56.0004L240.301 54.9004L232.301 29.6004L228.701 30.7004L228.001 28.5004L236.201 25.9004L255.701 42.2004L250.001 24.0004L246.501 25.1004L245.801 22.9004L255.401 19.9004L256.101 22.1004L252.501 23.2004L261.201 50.7004L257.801 51.8004L236.401 33.7004L242.801 54.1004L246.201 53.0004L246.901 55.2004L237.401 58.2004L236.701 56.0004Z" fill="#582216"/>
<path d="M269.601 19.1003L275.601 44.9003L280.101 43.8003L280.601 46.0003L265.901 49.4003L265.401 47.2003L269.901 46.1003L263.901 20.3003L259.401 21.4003L258.901 19.2003L273.601 15.8003L274.101 18.0003L269.601 19.1003Z" fill="#582216"/>
<path d="M292.201 28.8004C291.201 20.5004 294.201 11.6004 304.201 10.4004C309.101 9.8004 312.301 11.3004 314.101 12.1004L314.901 18.5004L310.801 19.0004C309.701 13.8004 306.901 12.2004 303.901 12.6004C298.501 13.2004 297.001 19.0004 297.701 25.3004C298.801 35.0004 303.401 40.3004 308.501 39.7004C311.801 39.3004 314.701 37.0004 315.101 32.2004L317.601 31.9004C317.301 38.0004 313.401 41.8004 307.901 42.5004C297.601 43.7004 293.101 35.9004 292.201 28.8004Z" fill="#582216"/>
<path d="M320.401 25.8002C320.201 17.4002 324.201 8.7002 334.101 8.4002C344.401 8.2002 348.401 16.1002 348.601 23.3002C348.801 31.6002 344.901 40.4002 334.901 40.7002C324.401 40.9002 320.601 32.9002 320.401 25.8002ZM342.701 26.6002C342.501 18.0002 339.801 10.4002 333.601 10.6002C328.201 10.7002 326.101 16.3002 326.301 22.7002C326.501 31.3002 329.201 38.8002 335.401 38.6002C340.801 38.4002 342.801 32.9002 342.701 26.6002Z" fill="#582216"/>
<path d="M354.601 29.1002L355.901 11.3002L352.201 11.0002L352.401 8.7002L365.701 9.7002L365.501 12.0002L361.801 11.7002L360.401 31.1002C360.101 35.8002 362.301 38.5002 366.301 38.8002C369.901 39.1002 373.401 36.7002 373.701 32.1002L375.101 12.6002L371.401 12.3002L371.601 10.0002L381.701 10.7002L381.501 13.0002L377.801 12.7002L376.401 32.0002C376.001 37.7002 372.001 41.7002 365.301 41.2002C358.501 40.9002 354.001 37.1002 354.601 29.1002Z" fill="#582216"/>
<path d="M380.801 39.8004L384.501 40.4004L389.001 14.3004L385.301 13.7004L385.701 11.4004L394.201 12.9004L404.001 36.3004L407.301 17.5004L403.701 16.9004L404.101 14.6004L414.001 16.3004L413.601 18.6004L409.901 18.0004L405.001 46.4004L401.501 45.8004L390.801 19.9004L387.101 40.9004L390.601 41.5004L390.201 43.8004L380.401 42.1004L380.801 39.8004Z" fill="#582216"/>
<path d="M415.101 46.4003L419.501 47.6003L426.401 22.0003L422.201 20.9003L418.201 26.5003L415.201 25.7003L417.501 17.3003L442.101 24.0003L439.801 32.4003L436.801 31.6003L436.101 24.8003L432.001 23.7003L425.101 49.3003L429.501 50.5003L428.901 52.7003L414.501 48.8003L415.101 46.4003Z" fill="#582216"/>
<path d="M463.801 62.5001L463.001 64.7001L455.001 61.7001L451.801 45.4001L449.301 44.5001L445.001 55.5001L448.501 56.8001L447.701 59.0001L435.301 54.3001L436.101 52.1001L439.601 53.4001L448.901 28.6001L445.401 27.3001L446.201 25.1001L459.701 30.2001C466.201 32.7001 467.701 37.4001 466.101 41.6001C464.801 45.1001 461.601 47.2001 457.501 47.0001L460.601 61.3001L463.801 62.5001ZM450.001 42.2001L454.101 43.7001C456.301 44.5001 459.201 42.7001 460.501 39.4001C461.801 36.1001 460.901 33.1001 458.501 32.1001L454.401 30.6001L450.001 42.2001Z" fill="#582216"/>
<path d="M484.701 59.5003L479.401 70.3003L483.101 72.1003L482.101 74.2003L469.501 68.0003L470.501 65.9003L474.201 67.7003L479.001 58.0003V40.6003L475.601 38.9003L476.601 36.8003L488.601 42.7003L487.601 44.8003L484.501 43.3003L484.401 56.5003L495.201 48.6003L491.801 46.9003L492.801 44.8003L502.101 49.4003L501.101 51.5003L497.701 49.8003L484.701 59.5003Z" fill="#582216"/>
<path d="M490.301 75.5003L493.401 77.5003L507.701 55.2003L504.601 53.2003L505.801 51.3003L513.601 56.3003L510.201 80.2003L530.001 66.8003L537.801 71.8003L536.601 73.7003L533.501 71.7003L519.101 94.0003L522.201 96.0003L521.001 97.9003L509.901 90.8003L511.101 88.9003L514.101 90.8003L525.701 72.8003L506.401 85.9003L503.901 84.3003L507.201 61.0003L495.601 79.0003L498.601 80.9003L497.401 82.8003L489.001 77.4003L490.301 75.5003Z" fill="#582216"/>
<path d="M546.901 116.5L545.401 118.3L535.101 109.9L536.601 108.1L539.501 110.5L542.801 101.9L535.801 96.1004L527.901 100.9L530.601 103.2L529.101 105L521.401 98.6004L522.901 96.8004L525.701 99.1004L551.901 83.4004L554.501 85.6004L544.101 114.4L546.901 116.5ZM543.701 99.5004L547.601 89.1004L547.401 88.9004L537.901 94.7004L543.701 99.5004Z" fill="#582216"/>
<path d="M547.601 117.1L550.201 119.8L569.101 101.2L566.501 98.5004L568.101 96.9004L574.101 103L568.401 127.8L582.001 114.4L579.401 111.8L581.001 110.2L588.101 117.4L586.501 119L583.901 116.3L563.401 136.5L561.001 134L567.401 106.7L552.201 121.7L554.701 124.3L553.101 125.9L546.101 118.8L547.601 117.1Z" fill="#582216"/>
</svg>
