<svg width="684" height="684" viewBox="0 0 684 684" fill="none" xmlns="http://www.w3.org/2000/svg">
<path d="M185.7 80.0996L189 78.3996L176.8 54.8996L173.5 56.5996L172.4 54.5996L180.6 50.2996L199.6 65.1996L197.8 41.3996L206 37.0996L207.1 39.0996L203.8 40.7996L216 64.3996L219.3 62.6996L220.4 64.6996L208.7 70.6996L207.6 68.6996L210.8 66.9996L201 47.9996L202.7 71.2996L200.1 72.6996L181.5 58.1996L191.3 77.1996L194.5 75.5996L195.6 77.5996L186.8 82.1996L185.7 80.0996Z" fill="#123F94"/>
<path d="M220.9 33.9997L230.8 58.5997L235.1 56.8997L236 58.9997L222 64.6997L221.1 62.5997L225.4 60.8997L215.5 36.2997L211.2 37.9997L210.3 35.8997L224.3 30.1997L225.2 32.2997L220.9 33.9997Z" fill="#123F94"/>
<path d="M236.7 55.9994L240.3 54.8994L232.3 29.5994L228.7 30.6994L228 28.4994L236.2 25.8994L255.7 42.1994L250 23.9994L246.5 25.0994L245.8 22.8994L255.4 19.8994L256.1 22.0994L252.5 23.1994L261.2 50.6994L257.8 51.7994L236.4 33.6994L242.8 54.0994L246.2 52.9994L246.9 55.1994L237.4 58.1994L236.7 55.9994Z" fill="#123F94"/>
<path d="M269.6 19.0998L275.6 44.8998L280.1 43.7998L280.6 45.9998L265.9 49.3998L265.4 47.1998L269.9 46.0998L263.9 20.2998L259.4 21.3998L258.9 19.1998L273.6 15.7998L274.1 17.9998L269.6 19.0998Z" fill="#123F94"/>
<path d="M314.9 32.0996C315.7 38.7996 309.4 42.1996 304.9 42.6996C300.7 43.1996 296.6 41.3996 294.1 37.7996L295.8 36.3996C298 39.3996 301 40.3996 303.9 40.0996C307.1 39.6996 309.9 37.5996 309.3 32.8996C308.8 28.8996 306.5 26.7996 303 27.1996L301.2 27.3996L300.9 25.1996C304 24.7996 307.1 22.2996 306.6 17.9996C306.2 14.9996 304.3 12.4996 301.2 12.8996C298.7 13.1996 296.8 15.1996 297.1 20.6996L293.3 21.1996L292.6 15.3996C294.5 12.8996 297.6 11.2996 301.1 10.7996C306.9 10.0996 311.5 12.7996 312.1 17.4996C312.5 20.7996 310.7 23.1996 308.5 24.5996C310.9 25.1996 314.4 27.5996 314.9 32.0996Z" fill="#123F94"/>
<path d="M318.5 26.8998L329.4 26.2998L329.6 29.0998L318.7 29.6998L318.5 26.8998Z" fill="#123F94"/>
<path d="M362.7 24.1996C362.6 31.6996 357.6 40.1996 347.4 39.9996L332.6 39.6996V37.3996L336.5 37.4996L337 10.9996L333.1 10.8996V8.59961L348 8.99961C358.3 9.09961 362.9 16.0996 362.7 24.1996ZM356.7 24.0996C356.8 16.7996 353.5 11.3996 347.7 11.2996L342.9 11.1996L342.4 37.6996L347.2 37.7996C353.4 37.8996 356.5 30.8996 356.7 24.0996Z" fill="#123F94"/>
<path d="M367 25.9998C368 17.6998 373.2 9.59985 383 10.7998C393.2 11.9998 396 20.4998 395.2 27.5998C394.2 35.7998 389.1 43.9998 379.1 42.7998C368.8 41.5998 366.2 33.0998 367 25.9998ZM388.9 29.9998C389.9 21.4998 388.4 13.5998 382.2 12.7998C376.8 12.0998 374 17.3998 373.2 23.6998C372.2 32.1998 373.8 39.9998 379.9 40.7998C385.4 41.4998 388.2 36.2998 388.9 29.9998Z" fill="#123F94"/>
<path d="M399.3 30.1997C401.2 22.0997 407.2 14.4997 416.8 16.6997C426.9 18.9997 428.8 27.6997 427.2 34.6997C425.4 42.7997 419.4 50.3997 409.6 48.1997C399.4 45.7997 397.7 37.0997 399.3 30.1997ZM420.7 36.3997C422.6 27.9997 421.9 19.9997 415.8 18.5997C410.5 17.3997 407.2 22.2997 405.8 28.4997C403.9 36.8997 404.7 44.7997 410.7 46.1997C416 47.3997 419.3 42.5997 420.7 36.3997Z" fill="#123F94"/>
<path d="M453.9 58.3997L453.2 60.5997L445.1 57.8997L441.3 41.6997L438.8 40.7997L434.9 51.9997L438.4 53.1997L437.7 55.3997L425.1 51.1997L425.8 48.9997L429.3 50.1997L437.8 25.0997L434.3 23.8997L435 21.6997L448.7 26.2997C455.3 28.4997 456.9 33.1997 455.5 37.4997C454.3 40.9997 451.2 43.2997 447.1 43.1997L450.7 57.3997L453.9 58.3997ZM439.4 38.5997L443.5 39.9997C445.8 40.7997 448.6 38.7997 449.7 35.4997C450.8 32.0997 449.9 29.0997 447.5 28.2997L443.4 26.8997L439.4 38.5997Z" fill="#123F94"/>
<path d="M502.2 52.1996L490.2 75.7996L493.5 77.4996L492.5 79.5996L480.6 73.5996L481.6 71.4996L484.9 73.1996L490.7 61.6996L479.7 56.0996L474 67.5996L477.3 69.2996L476.3 71.3996L464.4 65.3996L465.4 63.2996L468.7 64.9996L480.7 41.3996L477.4 39.6996L478.4 37.5996L490.3 43.5996L489.3 45.6996L485.9 43.9996L480.8 53.9996L491.8 59.5996L496.9 49.5996L493.6 47.8996L494.6 45.7996L506.5 51.7996L505.5 53.8996L502.2 52.1996Z" fill="#123F94"/>
<path d="M520.5 94.8998L519.2 96.7998L508 89.5998L509.3 87.6998L512.4 89.6998L514.7 80.7998L507.1 75.8998L499.8 81.4998L502.8 83.3998L501.5 85.2998L493.1 79.7998L494.4 77.8998L497.5 79.8998L521.8 61.2998L524.7 63.1998L517.6 92.9998L520.5 94.8998ZM515.3 78.3998L518 67.5998L517.8 67.4998L509 74.2998L515.3 78.3998Z" fill="#123F94"/>
<path d="M522.9 97.0996L526.5 99.8996L542.8 78.9996L539.4 76.2996L533.6 79.8996L531.1 77.9996L536.5 71.0996L556.6 86.7996L551.2 93.6996L548.7 91.7996L550.7 85.1996L547.3 82.5996L531 103.5L534.6 106.3L533.2 108.1L521.4 98.8996L522.9 97.0996Z" fill="#123F94"/>
<path d="M548.7 101.5C554.4 95.3995 563.1 91.8995 570.5 98.7995C574.1 102.1 575.1 105.6 575.6 107.5L571.2 112.2L568.2 109.4C571.4 105.2 570.9 102 568.7 99.9995C564.7 96.2995 559.4 98.8995 555.1 103.5C548.4 110.7 547.3 117.6 551.1 121.1C553.6 123.4 557.2 124.1 561.1 121.3L562.9 123C558.1 126.8 552.6 126.2 548.6 122.4C540.8 115.3 543.8 106.8 548.7 101.5Z" fill="#123F94"/>
<path d="M598.1 132.299L578.2 149.799L580.7 152.599L579 154.099L570.2 144.099L571.9 142.599L574.4 145.399L584.1 136.899L575.9 127.599L566.2 136.099L568.7 138.899L567 140.399L558.2 130.399L559.9 128.899L562.4 131.699L582.3 114.199L579.8 111.399L581.5 109.899L590.3 119.899L588.6 121.399L586.1 118.599L577.7 125.999L585.9 135.299L594.3 127.899L591.8 125.099L593.5 123.599L602.3 133.599L600.6 135.099L598.1 132.299Z" fill="#123F94"/>
</svg>
