<svg width="680" height="680" viewBox="0 0 680 680" fill="none" xmlns="http://www.w3.org/2000/svg">
<path d="M5.52304 32.242L8.01922 34.9896L27.5609 17.123L25.0647 14.3755L26.7119 12.7953L32.9877 19.603L23.5129 41.812L46.0361 33.9134L52.3119 40.7211L50.6647 42.3013L48.1686 39.5537L28.5303 57.4461L31.0265 60.1937L29.3793 61.7738L20.5556 52.0254L22.2027 50.4453L24.673 53.0962L40.4892 38.7126L18.4231 46.3852L16.3979 44.2361L25.5898 22.517L9.77362 36.9006L12.1473 39.5775L10.5002 41.1576L3.7793 33.8481L5.52304 32.242Z" fill="#E6001D"/>
<path d="M59.1627 54.311L37.9632 70.2407L40.7182 73.9542L38.9227 75.367L29.7934 63.3193L31.5889 61.9065L34.3439 65.6199L55.5434 49.6903L52.7884 45.9768L54.5839 44.564L63.7132 56.6117L61.9176 58.0245L59.1627 54.311Z" fill="#E6001D"/>
<path d="M42.0016 75.2667L43.9959 78.4593L66.3633 64.1838L64.369 60.9912L66.3129 59.7456L70.9466 66.9933L60.249 90.0476L76.3535 79.8313L74.3852 76.7353L76.329 75.4897L81.7115 83.9861L79.7676 85.2317L77.7733 82.0391L53.4621 97.5601L51.5196 94.5607L63.4641 69.2052L45.4157 80.6671L47.3582 83.6665L45.4143 84.9121L40.0578 76.5122L42.0016 75.2667Z" fill="#E6001D"/>
<path d="M86.1594 97.4952L62.7915 109.968L65.0187 114.03L63.023 115.083L55.9342 101.764L57.9299 100.711L60.1571 104.773L83.5251 92.3L81.2978 88.2381L83.2935 87.1857L90.3823 100.505L88.3866 101.557L86.1594 97.4952Z" fill="#E6001D"/>
<path d="M82.6393 121.836C90.3976 118.722 99.7708 119.316 103.518 128.665C105.366 133.242 104.745 136.721 104.438 138.667L98.4635 141.096L96.9194 137.265C101.657 134.857 102.478 131.738 101.315 128.944C99.3383 123.883 93.3477 123.936 87.4435 126.242C78.3587 129.815 74.4299 135.63 76.3294 140.401C77.5699 143.485 80.5421 145.691 85.2821 144.835L86.2189 147.173C80.2491 148.462 75.5692 145.678 73.4695 140.547C69.6446 130.908 76.0141 124.543 82.6393 121.836Z" fill="#E6001D"/>
<path d="M80.8841 151.604L81.9384 155.152L107.328 147.521L106.274 143.973L108.47 143.281L112.299 156.024L110.103 156.716L109.049 153.168L83.6586 160.8L86.4071 169.898L93.2551 170.341L94.2316 173.599L85.9057 176.141L78.8109 152.367L80.8841 151.604Z" fill="#E6001D"/>
<path d="M97.2246 177.042L114.677 173.401L113.913 169.775L116.16 169.276L118.926 182.304L116.679 182.803L115.914 179.177L96.8647 183.039C92.2472 183.966 90.2344 186.886 91.1024 190.899C91.841 194.428 95.0392 197.091 99.5601 196.19L118.68 192.205L117.916 188.58L120.163 188.081L122.198 197.992L119.95 198.491L119.186 194.865L100.233 198.701C94.6496 199.887 89.6799 197.181 88.3063 190.509C86.9845 184.03 89.3678 178.629 97.2246 177.042Z" fill="#E6001D"/>
<path d="M103.62 229.887C98.3901 230.46 94.2052 226.819 93.4698 220.598L91.8092 205.514L94.1084 205.208L94.4865 208.937L120.829 206.02L120.451 202.291L122.75 201.985L124.411 217.069C124.932 222.106 122.257 226.032 117.633 226.547C114.921 226.859 112.472 225.445 110.788 223.411C109.948 226.846 107.446 229.483 103.62 229.887ZM102.936 223.859C106.253 223.488 108.93 221.114 108.54 218.113L107.974 213.295L95.0924 214.676L95.6845 219.59C96.0418 222.083 98.7242 224.366 102.936 223.859ZM121.532 211.733L110.37 212.964L110.807 217.298C111.112 219.598 113.394 221.16 116.808 220.763C120.44 220.411 122.1 218.103 121.872 216.093L121.532 211.733Z" fill="#E6001D"/>
<path d="M97.433 232.684L97.3988 236.42L123.912 236.459L123.947 232.723L126.227 232.733L126.212 241.951L104.258 251.975L126.222 261.308L126.208 270.526L123.927 270.516L123.962 266.78L97.4739 266.837L97.4397 270.573L95.1593 270.563L95.1565 257.416L97.4368 257.426L97.4734 261.04L118.917 261.091L97.514 251.918L97.5361 248.91L118.91 239.042L97.4922 239.087L97.5028 242.604L95.2225 242.594L95.2492 232.648L97.433 232.684Z" fill="#E6001D"/>
<path d="M93.5355 302.367L91.2741 302.041L92.7978 288.796L95.0592 289.121L94.6127 292.864L103.629 290.966L104.739 281.972L96.5209 277.963L96.1193 281.487L93.8579 281.161L95.0249 271.22L97.2862 271.546L96.8139 275.193L124.162 288.777L123.734 292.205L93.8923 299.062L93.5355 302.367ZM106.069 290.416L116.946 288.122L116.991 287.903L106.988 283.026L106.069 290.416Z" fill="#E6001D"/>
<path d="M93.2596 303.269L92.4716 306.897L118.354 312.695L119.142 309.068L121.359 309.613L119.462 317.989L95.5937 326.662L114.195 330.788L114.983 327.161L117.2 327.706L114.964 337.519L112.747 336.974L113.535 333.346L85.6548 327.048L86.3979 323.639L112.752 314.196L91.9337 309.526L91.1198 313.056L88.9033 312.512L91.0689 302.821L93.2596 303.269Z" fill="#E6001D"/>
</svg>
